<?xml version="1.0" encoding="UTF-8" standalone="no"?>
<!DOCTYPE svg PUBLIC "-//W3C//DTD SVG 1.1//EN" "http://www.w3.org/Graphics/SVG/1.1/DTD/svg11.dtd">
<svg width="100%" height="100%" viewBox="0 0 80 80" version="1.1" xmlns="http://www.w3.org/2000/svg" xmlns:xlink="http://www.w3.org/1999/xlink" xml:space="preserve" xmlns:serif="http://www.serif.com/" style="fill-rule:evenodd;clip-rule:evenodd;stroke-linejoin:round;stroke-miterlimit:2;">
    <g id="Hintergrund" transform="matrix(1.03047,0,0,1.03047,-0.570977,-3.78226)">
        <path d="M74.162,15.438L74.162,69.537C74.162,73.81 70.694,77.279 66.421,77.279L12.322,77.279C8.049,77.279 4.58,73.81 4.58,69.537L4.58,15.438C4.58,11.166 8.049,7.697 12.322,7.697L66.421,7.697C70.694,7.697 74.162,11.166 74.162,15.438Z" style="fill:rgb(100,75,245);"/>
    </g>
    <g id="E-Finance-Reply" serif:id="E-Finance Reply" transform="matrix(0.293738,0,0,0.293738,-1.6322,-1.6322)">
        <g transform="matrix(-1,0,0,1,207.025,92.6868)">
            <path d="M0.001,-32.793C9.062,-32.793 16.387,-25.448 16.387,-16.377C16.387,-7.334 9.062,0 0.001,0C-9.042,0 -16.386,-7.334 -16.386,-16.377C-16.386,-25.448 -9.042,-32.793 0.001,-32.793" style="fill:white;fill-rule:nonzero;"/>
        </g>
        <g transform="matrix(1,0,0,1,171.083,175.962)">
            <path d="M0,-47.103L20.475,-74.056C21.521,-75.434 21.608,-77.315 20.693,-78.783L11.996,-92.738C11.23,-93.968 9.879,-94.712 8.429,-94.702L-29.106,-94.439L-49.685,-94.455C-51.296,-94.456 -52.012,-92.43 -50.758,-91.419L-44.991,-86.768C-44.18,-86.114 -43.219,-85.671 -42.195,-85.478L-6.451,-78.744L-50.667,-31.224L-108.863,-22.958C-110.878,-22.672 -111.738,-20.237 -110.35,-18.749L-104.666,-12.653C-103.542,-11.447 -101.958,-10.774 -100.309,-10.801L-44.13,-11.724C-42.049,-11.758 -40.015,-12.347 -38.238,-13.429L-24.777,-21.626L3.632,0.923C4.751,1.811 5.484,3.098 5.676,4.513L11.084,44.332C11.339,46.209 12.942,47.609 14.837,47.609L17.731,47.609C19.817,47.609 21.51,45.922 21.518,43.836L21.683,-0.353C21.692,-2.633 20.962,-4.854 19.604,-6.685L-5.184,-40.095L0,-47.103Z" style="fill:white;fill-rule:nonzero;"/>
        </g>
    </g>
</svg>
